<svg xmlns="http://www.w3.org/2000/svg" fill="none" viewBox="0 0 161 34">
    <g fill="#000" clip-path="url(#a)" opacity=".25">
      <path d="M159.12 25.381c-.039.119-.059.218-.08.297-.256.673-.475 1.346-.771 2a4.306 4.306 0 0 1-2.712 2.396c-.48.143-.97.255-1.464.336a24.73 24.73 0 0 1-5.128.259c-.75-.05-1.495-.149-2.231-.297a1.859 1.859 0 0 1-1.464-1.426 7.095 7.095 0 0 1-.257-2.045v-9.066c-.002-.08.005-.16.021-.238.04-.003.08-.01.119-.02 1.425 0 2.851 0 4.274.02.789 0 1.574.1 2.337.297a1.824 1.824 0 0 1 1.384 1.328c.086.292.152.59.199.89.06.515.078 1.009.138 1.544l.595-.119c.197-.039.416-.078.652-.137a85.549 85.549 0 0 1 .039-9.82h-1.268c-.039.515-.059.99-.139 1.465a2.102 2.102 0 0 1-1.959 2.098c-.699.133-1.408.206-2.119.218-1.366.039-2.712.019-4.078.019a.561.561 0 0 1-.186-.019V3.701h5.205a14.557 14.557 0 0 1 3.068.317 3.306 3.306 0 0 1 2.634 2.396c.106.317.192.641.257.97.098.455.158.91.217 1.386.297-.119.593-.258.89-.357a.287.287 0 0 0 .218-.316V1.982h-22.027V3.25h.297c.712.06 1.426.099 2.138.197a1.35 1.35 0 0 1 1.226 1.208c.101.516.163 1.038.186 1.563.021 7.286.021 14.55.021 21.836a9.824 9.824 0 0 1-.099 1.327 1.631 1.631 0 0 1-1.563 1.622c-.43.076-.865.122-1.301.14-.277.02-.574 0-.872 0v1.487c3.904-.12 7.76-.04 11.621-.06 3.86-.02 7.739.04 11.62.06l.039-.12c.396-1.702.792-3.404 1.208-5.086.139-.558.277-1.09.416-1.643v-.099c-.47-.082-.866-.2-1.301-.301Z"/>
      <path d="M23.8 25.62c-.256.674-.475 1.367-.77 2.02a4.336 4.336 0 0 1-2.733 2.434c-.564.166-1.14.29-1.723.372a27.197 27.197 0 0 1-4.75.238c-.857 0-1.71-.12-2.534-.357a1.72 1.72 0 0 1-1.227-1.208 8.322 8.322 0 0 1-.316-1.703c-.039-3.208-.02-6.414-.039-9.64 0-.06.02-.12.02-.186h.187c1.3 0 2.613-.02 3.92.02.769.032 1.535.105 2.297.218a1.996 1.996 0 0 1 1.8 1.643c.08.416.14.83.2 1.247.039.316.039.633.06.97.416-.08.811-.186 1.246-.258a85.503 85.503 0 0 1 .04-9.82H18.19v.303c-.039.456-.06.89-.14 1.346a2.095 2.095 0 0 1-1.858 1.94c-.721.113-1.449.185-2.178.218-1.366.039-2.712.018-4.078.018a.558.558 0 0 1-.186-.018V3.756h.199c1.604 0 3.227-.019 4.833.02.947.02 1.893.1 2.83.238a3.39 3.39 0 0 1 3.048 2.416c.062.176.115.355.158.536.12.613.238 1.247.357 1.88.277-.119.595-.237.89-.356a.262.262 0 0 0 .2-.298V2.075h-.337c-6.32 0-12.61-.02-18.925-.02H.196V3.34c.816-.027 1.632.035 2.435.186a1.431 1.431 0 0 1 1.267 1.247c.102.556.164 1.118.186 1.682.02 2.197.02 4.375.02 6.572v14.907a11.35 11.35 0 0 1-.185 1.821 1.474 1.474 0 0 1-1.327 1.287c-.653.098-1.301.139-1.96.197-.144.016-.29.023-.434.02v1.366c.02.119.08.12.199.12.475-.04.95-.1 1.405-.1 7.146.04 14.272-.118 21.419.12h.256c.558-2.337 1.09-4.647 1.643-6.969-.435-.119-.812-.238-1.226-.356-.062.02-.08.1-.093.18Z"/>
      <path d="M87.319 30.37a5.406 5.406 0 0 1-.89-1.664c-2.634-7.641-5.273-15.283-7.919-22.925A466.075 466.075 0 0 1 76.83.852h-.04c-.02.019-.059.06-.08.06a33.692 33.692 0 0 1-4.137 1.842.469.469 0 0 0-.357.357c-2.613 7.76-5.226 15.527-7.84 23.3a14.586 14.586 0 0 1-1.405 3.16 3.259 3.259 0 0 1-2.23 1.523c-.396.08-.792.12-1.188.159v1.246c3.307-.08 6.593-.038 9.879.04v-1.346h-.416a7.993 7.993 0 0 1-2.277-.318 1.354 1.354 0 0 1-.93-1.524 4.14 4.14 0 0 1 .158-.673c.733-2.197 1.487-4.375 2.218-6.572.06-.158.14-.158.277-.158h9.382c.186 0 .257.06.298.217.494 1.465 1.009 2.911 1.487 4.376.297.929.613 1.858.83 2.81a1.268 1.268 0 0 1-1.226 1.762c-.515.06-1.049.06-1.563.099h-.257v1.286h12.51v-1.286c-.237-.02-.475-.019-.711-.06a2.59 2.59 0 0 1-1.892-.783ZM68.927 19.404c1.405-4.09 2.788-8.179 4.197-12.234h.06c1.366 4.078 2.711 8.135 4.089 12.234h-8.346Z"/>
      <path d="M132.06 31.241a2.068 2.068 0 0 1-1.98-1.583 8.275 8.275 0 0 1-.238-1.208c-.059-.673-.079-1.346-.118-2.045-.119-1.723-.238-3.444-.337-5.187-.098-1.465-.199-2.93-.297-4.375l-.357-5.186c-.08-1.268-.186-2.533-.257-3.78a9.585 9.585 0 0 1-.02-2.376 2.237 2.237 0 0 1 1.663-1.96c.291-.091.589-.153.891-.187.476-.06.929-.08 1.405-.119V1.988c-.558.04-1.089.08-1.604.08-2.416-.02-4.833-.06-7.249-.098a.353.353 0 0 0-.396.256c-3.286 7.483-6.565 14.966-9.838 22.449a.79.79 0 0 1-.119.217 2.388 2.388 0 0 0-.119-.238c-3.266-7.383-6.532-14.774-9.798-22.171-.238-.515-.238-.515-.792-.474-1.009.039-2.019.098-3.01.098-1.562 0-3.127-.06-4.69-.08-.298 0-.593-.039-.89-.06v1.287c.13.022.262.035.395.039.76.073 1.51.24 2.23.494a2.187 2.187 0 0 1 1.387 1.524c.185.665.252 1.357.199 2.045-.12 1.623-.238 3.247-.372 4.87-.238 2.732-.494 5.464-.732 8.194a77.564 77.564 0 0 1-1.149 7.978 6.565 6.565 0 0 1-.297 1.069 2.602 2.602 0 0 1-2.416 1.663c-.476.06-.95.078-1.447.119v1.149c3.662.039 7.325.098 10.967.137v-1.3c-.218 0-.417.02-.614 0-.613-.06-1.208-.079-1.821-.187a1.826 1.826 0 0 1-1.565-1.563 9.012 9.012 0 0 1-.186-1.444 26.179 26.179 0 0 1 .258-3.717l.654-7.108c.218-2.277.417-4.533.634-6.81.039-.372.08-.732.119-1.115h.06c.039.06.059.137.098.197 2.514 5.72 5.022 11.448 7.522 17.183.911 2.08 1.822 4.176 2.732 6.256.08.158.158.218.316.197.242-.04.487-.059.733-.06a.325.325 0 0 0 .336-.256 1074.25 1074.25 0 0 1 3.604-7.958c2.416-5.305 4.81-10.63 7.226-15.936.041-.07.074-.142.099-.218.119 1.188.197 2.375.256 3.563l.298 4.732.357 5.623c.08 1.345.186 2.711.256 4.057.069.882.089 1.768.06 2.652-.08 1.229-.575 1.623-1.563 1.781-.595.099-1.209.08-1.822.119h-.258v1.229h13.256v-1.23h-.277c-.46.047-.923.053-1.383.02Z"/>
      <path d="M57.347 31.202c-.953.01-1.88-.32-2.613-.93a8.138 8.138 0 0 1-1.167-1.3 3418.198 3418.198 0 0 1-9.343-13.197c-.04-.06-.099-.139-.14-.199.053-.056.1-.119.14-.185l5.997-7.305c.79-1.04 1.678-2 2.653-2.87a7.992 7.992 0 0 1 3.384-1.78c.456-.099.911-.14 1.387-.197V1.97c-3.801 0-7.602.08-11.383-.039V3.26c.476.04.93.06 1.367.12a3.85 3.85 0 0 1 1.486.473.777.777 0 0 1 .417.97 2.82 2.82 0 0 1-.337.831 40.11 40.11 0 0 1-1.05 1.524 796.682 796.682 0 0 1-5.068 6.552c-.06.078-.12.158-.2.257-.237-.337-.455-.655-.672-.95-1.623-2.337-3.247-4.692-4.87-7.028a6.571 6.571 0 0 1-.712-1.327.912.912 0 0 1 .744-1.301c.37-.054.742-.086 1.115-.098.257-.02.515 0 .772 0V1.915c-4.554.124-9.094.118-13.62-.02V3.28c.494.06.95.119 1.425.199a3.773 3.773 0 0 1 2.613 1.486c.416.593.872 1.15 1.301 1.742 2.751 3.84 5.483 7.7 8.236 11.542.119.158.119.259-.02.396-2.218 2.652-4.415 5.325-6.612 7.977-.792.95-1.604 1.9-2.435 2.831a5.136 5.136 0 0 1-3.643 1.723c-.336.02-.672.04-1.03.04v1.3h11.246V31.23c-.575-.02-1.129-.02-1.703-.08a5.291 5.291 0 0 1-1.268-.258.744.744 0 0 1-.475-.95c.08-.374.242-.726.475-1.03 2.158-2.85 4.296-5.7 6.454-8.55.06-.08.119-.157.199-.258.047.07.1.137.158.2.557.79 1.115 1.562 1.663 2.354 1.563 2.217 3.128 4.414 4.673 6.632.182.26.335.538.455.832a.629.629 0 0 1-.494.93c-.334.065-.67.112-1.01.139-.297.019-.613 0-.91 0v1.346h12.966V31.19c-.214.011-.393.011-.55.011Z"/>
    </g>
    <defs>
      <clipPath id="a">
        <path fill="#fff" d="M.196.854h160.212v32.292H.196z"/>
      </clipPath>
    </defs>
  </svg>