<svg xmlns="http://www.w3.org/2000/svg" fill="none" viewBox="0 0 170 34">
    <g fill="#000" clip-path="url(#a)" opacity=".25">
      <path d="M89.614.361c-1.537 0-2.974.11-4.357 0a2.147 2.147 0 0 0-2.416 1.465c-1.208 2.672-2.453 5.31-3.661 7.983-.88 1.938-1.722 3.918-2.673 6.042-2.344-4.907-4.504-9.52-6.773-14.126-.257-.51-.805-1.245-1.28-1.282-1.86-.147-3.735-.036-5.75-.036-.037.952-.11 1.757-.11 2.526 0 6.664 0 13.292.038 19.955 0 4.212 0 4.1 4.275 4.212 1.684.037 2.013-.588 1.977-2.125-.11-3.99-.072-7.98-.072-12.559.513.88.77 1.244.951 1.647 1.246 2.673 2.603 5.273 3.625 7.981.695 1.859 2.044 1.5 3.405 1.611a2.145 2.145 0 0 0 2.453-1.574c1.246-3.113 2.636-6.115 3.99-9.189l.44.11c0 3.148 0 6.334.037 9.479 0 4.646 0 4.613 4.646 4.503 1.281-.037 1.502-.513 1.502-1.646-.037-7.62-.037-15.241-.072-22.884-.028-.628-.1-1.286-.175-2.093Z"/>
      <path d="M162.733 10.76a47.634 47.634 0 0 1-.623 2.086c-.622 2.044-1.245 4.137-2.012 6.665-.404-1.063-.623-1.611-.842-2.162-1.099-3.15-2.16-6.334-3.296-9.479-.186-.513-.805-1.17-1.245-1.208-1.612-.147-3.258-.037-5.273-.037.329 1.1.476 1.794.732 2.453 2.045 5.09 4.065 10.18 6.152 15.241a3.058 3.058 0 0 1-1.184 4.207 3.053 3.053 0 0 1-1.561.371 21.86 21.86 0 0 0-2.197.073c-.403.074-1.026.557-1.026.879-.109 1.28-.037 2.602-.037 3.771a9.85 9.85 0 0 0 10.985-4.247 13.139 13.139 0 0 0 1.574-2.673c1.94-5.053 3.881-10.105 5.712-15.194.557-1.5.879-3.112 1.317-4.686-5.273-1.113-5.858-.782-7.176 3.94Z"/>
      <path d="M137.653 18.483c4.247 0 8.458-.037 12.852-.037a34.773 34.773 0 0 0-.294-4.944 8.294 8.294 0 0 0-5.674-6.992 9.952 9.952 0 0 0-13.291 8.64c-.623 5.969 1.903 10.325 6.994 11.68 3.021.833 6.221.744 9.191-.256a1.808 1.808 0 0 0 1.026-1.171c.086-1.243.099-2.49.037-3.734-8.059 1.026-10.695.293-10.841-3.186Zm3.624-7.62a3.371 3.371 0 0 1 3.295 3.479c-2.306 0-4.646 0-7.063.037.433-2.412 1.79-3.583 3.768-3.516Z"/>
      <path d="M51.132 6.366c-5.858.036-9.995 4.541-9.923 10.764.072 6.297 4.21 10.472 10.252 10.434 6.043-.037 9.924-4.247 9.851-10.728-.037-6.334-4.1-10.507-10.18-10.47Zm3.368 13.95a3.841 3.841 0 0 1-2.453 2.044 4.46 4.46 0 0 1-3.296-1.28 6.691 6.691 0 0 1 .186-8.569 3.369 3.369 0 0 1 5.455.44c.48 1.032.849 2.112 1.099 3.222a19.075 19.075 0 0 1-.989 4.133l-.002.01Z"/>
      <path d="M101.44 6.22a10.61 10.61 0 0 0-.219 21.2c6.078.036 10.037-4.066 10.037-10.363-.004-6.518-3.885-10.802-9.818-10.838Zm3.662 12.337a3.864 3.864 0 0 1-1.27 2.752 3.853 3.853 0 0 1-2.868.982 4.055 4.055 0 0 1-3.734-3.843c-.072-.586-.072-1.209-.11-1.575.038-.658.038-1.098.073-1.537a4.019 4.019 0 0 1 3.918-4.21 4.108 4.108 0 0 1 4.028 4.138 14.174 14.174 0 0 1-.037 3.293Z"/>
      <path d="M19.46 6.519a80.343 80.343 0 0 0-8.86.879c-1.026.11-1.28.66-1.28 1.61.037 2.82.037 5.602.037 8.421h.072v6.773c0 3.039 0 3.039 3.149 3.002 2.745-.037 2.788-.037 2.788-2.788 0-3.771 0-7.543-.072-11.314-.038-1.136.329-1.611 1.537-1.648 3.223-.073 4.46.988 4.503 4.246.037 2.454 0 4.872 0 7.324 0 4.356 0 4.275 4.357 4.21 1.208-.038 1.611-.404 1.574-1.575-.072-3.697-.037-7.434-.072-11.131-.117-4.866-2.9-7.942-7.732-8.01Z"/>
      <path d="M123.993 6.513a73.221 73.221 0 0 0-9.776.558c-1.391.072-1.794.805-1.757 2.16.073 4.503-.037 9.007.073 13.545.109 4.872-.915 4.065 4.275 4.175 1.317.037 1.648-.44 1.611-1.721-.11-4.065-.109-8.165-.109-12.267 0-.558.109-1.355.475-1.61a3.96 3.96 0 0 1 5.205 1.903c.254.88.379 1.793.371 2.708.037 3.186 0 6.335.073 9.52 0 .476.557 1.32.914 1.355 1.536.105 3.076.117 4.613.038 0-5.054.22-9.922-.109-14.756a5.945 5.945 0 0 0-5.859-5.608Z"/>
      <path d="M41.393 13.981c0-1.096-.073-1.94 0-2.788.11-1.537-.404-2.23-2.045-2.044a37.8 37.8 0 0 1-4.065.037c-.371-3.552.257-4.247 3.478-4.247h3.368c0-1.318-.037-2.344 0-3.368C42.2.473 41.799.034 40.664.107 39.2.179 37.735.069 36.27.179c-4.1.22-6.877 2.71-6.957 6.59-.146 6.41-.072 12.826 0 19.223a1.607 1.607 0 0 0 .915 1.173c1.574.11 3.148.037 4.907.037 0-4.46-.037-8.678-.037-13.144 2.157-.077 4.172-.077 6.295-.077Z"/>
      <path d="M6.757.508c-1.647 0-3.111.074-4.576 0C.901.435.534.91.57 2.192c.072 6.877.072 13.767.072 20.651 0 4.461 0 4.431 4.576 4.394 1.392 0 1.758-.476 1.721-1.793-.072-7.69-.072-15.379-.11-23.031.038-.55-.035-1.061-.072-1.905Z"/>
    </g>
    <defs>
      <clipPath id="a">
        <path fill="#fff" d="M.566.097H169.91v33.805H.566z"/>
      </clipPath>
    </defs>
  </svg>