<svg xmlns="http://www.w3.org/2000/svg" fill="none" viewBox="0 0 130 62">
    <g fill="#000" clip-path="url(#a)" opacity=".25">
      <path d="M29.272 30.116c-.634-.02-1.25 0-1.885 0h-1.963V40.71a.153.153 0 0 1-.039.08.647.647 0 0 1-.139.08c-.119-.098-.372-.199-.396-.336a11.29 11.29 0 0 0-1.115-2.617c-.675-1.606-1.448-3.173-2.141-4.76-.437-1.011-.952-1.983-1.469-3.015h-5.122c-.08.08-.217.158-.217.217a31.26 31.26 0 0 0-.437 3.926h-3.757c-.08 1.07-.199 2.063-.217 3.054a8.674 8.674 0 0 1-.336 1.427A5.896 5.896 0 0 1 8.849 37a4.938 4.938 0 0 1-.892-2.26 10.752 10.752 0 0 0 3.568-5.373c.132-.867.211-1.74.238-2.617 0-.952-.476-1.825-.396-2.788h5.69a3.45 3.45 0 0 0 .217-.833c.02-1.407.02-2.836.02-4.303H8.987V15.06h5.296v-4.938H9.066c-.098-.099-.238-.186-.238-.238-.02-1.15 0-2.301 0-3.49l.277-.278H16.9V.94a.15.15 0 0 0-.04-.08c-.02-.02-.038-.04-.038-.02H3.197v22.328c0 .565-.115 1.125-.337 1.646-.386.919-.6 1.9-.633 2.896-.013.765.033 1.53.137 2.288.099 1.05.515 2.004.634 3.015a1.814 1.814 0 0 1 .372 1.606 8.867 8.867 0 0 0-2.26 3.43 7.62 7.62 0 0 0-.69 3.18c.03.562.03 1.125 0 1.687a5.39 5.39 0 0 0 1.487 3.648 4.78 4.78 0 0 0 3.687 1.626h.991a4.251 4.251 0 0 0 2.34-.594c.318-.186.773-.238.972-.476.259-.338.615-.457.833-.755a7.317 7.317 0 0 0 3.61 1.686v5.446h5.73V41.777a.151.151 0 0 1 .039-.08l.08-.08c.105.123.198.255.276.396.794 1.627 1.567 3.232 2.242 4.918.574 1.448 1.348 2.816 2.004 4.223.23.4.41.826.535 1.27.134.388.336.75.595 1.07h5.314V30.263a5.016 5.016 0 0 0-1.883-.147ZM6.453 26.309c.297-.139.595-.277.913-.436a1.985 1.985 0 0 1 .773 2.22 7.048 7.048 0 0 1-.336 1.529c-.302.652-.64 1.288-1.012 1.903a8.522 8.522 0 0 1-.338-5.216Zm-.158 17.868a1.823 1.823 0 0 1-1.388-1.21 3.297 3.297 0 0 1-.238-2.301c.08-.202.113-.42.098-.636-.049-.429.065-.86.318-1.21.99 1.673 1.924 3.253 2.875 4.833-.442.68-1.156.501-1.67.522l.005.002Zm7.992-1.21c-.14 0-.277.02-.318.02l-.99-.99c.098-.417.258-.872.357-1.369a5.986 5.986 0 0 1 .238-1.486c.258-.497.02-.973.185-1.408.151-.48.214-.984.186-1.486h.357c-.02 2.256-.02 4.477-.02 6.717l.005.002Z"/>
      <path d="M21.689 6.301h-1.487a7.045 7.045 0 0 0-1.301.041v17.806c.217 0 .416.02.615 0 .693-.06 1.389-.158 2.102-.186.753-.039 1.528 0 2.28 0h.715v-12.89a4.66 4.66 0 0 1 1.3-.371c.575 0 .93.496 1.33.929v12.295h5.69v-12.77c1.488-.575 1.568-.833 2.52.159.273.761.368 1.575.276 2.379v10.232h5.75v-1.011c0-3.768-.02-7.535.021-11.303 0-.793-.238-1.527-.238-2.3 0-.337-.297-.675-.356-1.032a2.603 2.603 0 0 0-1.567-1.766 3.864 3.864 0 0 0-3.866.755c-.813.832-1.606 1.706-2.439 2.578a2.032 2.032 0 0 1-.258-.616 3.216 3.216 0 0 0-1.15-2.2 3.728 3.728 0 0 0-2.558-.694c-.277.337-.694.06-.972.238a7.993 7.993 0 0 0-3.173 3.114h-.372c-.515-1.032-1.031-2.082-1.567-3.134A1.935 1.935 0 0 0 21.69 6.3Z"/>
      <path d="M61.912 36.66v-.968h-4.184a93.87 93.87 0 0 0-.773 1.448c-.258.496-.476.99-.714 1.507h-.372c-1.388-2.003-.633-1.587-2.994-2.973-.357 0-.714.02-1.091 0a3.513 3.513 0 0 0-2.994 1.858 11.338 11.338 0 0 0-1.368 4.779 18.505 18.505 0 0 0-.02 2.777c-.023.931.023 1.863.139 2.788.112.74.264 1.476.455 2.2a5.15 5.15 0 0 0 2.2 3.134c.159.099.337.158.558.277h1.904a2.16 2.16 0 0 0 1.388-.457 5.834 5.834 0 0 0 1.706-1.844c.02-.06.158-.08.337-.14a13.888 13.888 0 0 1-.218 3.967.974.974 0 0 1-.217.398c-.655.734-1.301 1.447-2.46 1.249-.371-.06-.793 0-1.189-.02-.238 0-.535.118-.714-.159-.693.06-1.228-.496-1.983-.558a7.108 7.108 0 0 1-.892 1.883c-.372.577-.535 1.301-.99 1.904.341.428.828.717 1.367.812 1.47.54 3.017.849 4.582.913.535.02.99-.218 1.507-.218a6.29 6.29 0 0 0 2.064-.515 7.471 7.471 0 0 0 2.557-1.725c.558-.557.833-1.27 1.368-1.825.12-.54.313-1.06.574-1.546.259-.813.099-1.705.417-2.498.03-.197.03-.398 0-.595.05-5.282.05-10.578.05-15.853ZM56.15 48.48c-.258.199-.558.416-.853.635h-1.409a4.538 4.538 0 0 1-1.19-1.528c-.157-.316.099-.752-.297-.972a10.13 10.13 0 0 1-.186-2.776c.054-.962.31-1.901.753-2.757a2.247 2.247 0 0 1 2.141-1.27c.357.278.693.558 1.032.834l.009 7.834Z"/>
      <path d="M49.953 8.18c-.357.456-.574 1.091-1.229 1.35a189.06 189.06 0 0 0-1.745-3.214h-3.55a.448.448 0 0 0-.14.02 51.564 51.564 0 0 1-.217 5.831 16.784 16.784 0 0 0 .2 3.292c-.021 4.104-.021 8.19-.021 12.295v.99h5.414a.153.153 0 0 0 .08-.038.283.283 0 0 0 .06-.08v-6.32c0-.02.038-.039.098-.098.277.277.557.535.812.814a2.937 2.937 0 0 0 2.38 1.169h2.16c.06-.06.1-.12.159-.14a4.833 4.833 0 0 0 2.717-3.172l.535-1.673c.186-.615-.08-1.29.259-1.859.15-2.13.01-4.272-.417-6.366a6.505 6.505 0 0 0-1.765-3.332 3.508 3.508 0 0 0-3.729-.872c-.812.251-1.53.74-2.061 1.403Zm2.602 4.402c.06.535.199 1.052.238 1.587.02.336-.099.714.199 1.011.02.019 0 .06 0 .099a14.245 14.245 0 0 1-.654 3.291 2.893 2.893 0 0 1-1.288 1.389h-1.17l-.832-.595v-8.09a86.93 86.93 0 0 0 1.13-.616h.912c.222.123.434.262.634.416.14.14.099.437.417.396.074.428.371.78.41 1.117l.004-.005Z"/>
      <path d="M115.452 42.748a6.216 6.216 0 0 0-.714-3.074 6.414 6.414 0 0 0-5.988-4.006c-.396 0-.794-.039-1.19 0-.556.066-1.106.172-1.647.318a6.012 6.012 0 0 0-2.697 1.673 7.09 7.09 0 0 0-1.804 3.312 27.081 27.081 0 0 0-.456 3.589c-.08.574.238 1.07.199 1.606a8.604 8.604 0 0 0 .595 3.312 6.876 6.876 0 0 0 1.706 2.656c.337.276.703.516 1.091.714a7.732 7.732 0 0 0 1.606.693c.68.169 1.382.232 2.082.186a8.352 8.352 0 0 0 2.221-.186 6.686 6.686 0 0 0 2.082-.972c.615-.416.951-1.07 1.526-1.547.084-.125.158-.257.219-.395a9.16 9.16 0 0 0 .991-2.56c.258-.93.198-1.884.371-2.816a4.71 4.71 0 0 0 0-1.288 9.075 9.075 0 0 1-.193-1.215Zm-5.373 4.897a2.507 2.507 0 0 1-1.13 2.28h-1.407a5.675 5.675 0 0 1-.755-1.05 4.59 4.59 0 0 1-.257-1.468c-.02-1.804-.02-3.628 0-5.432.011-.497.133-.985.357-1.428.06-.098.021-.256.041-.435.218-.186.456-.398.753-.675h1.301a3.286 3.286 0 0 1 1.071 2.48c.106 1.903.085 3.807.026 5.728Z"/>
      <path d="M77.418 42.054a17.055 17.055 0 0 0-.773-2.658 5.749 5.749 0 0 0-2.379-2.756 6.365 6.365 0 0 0-2.777-.952 6.878 6.878 0 0 0-3.172.186c-.586.178-1.157.404-1.707.675a7.652 7.652 0 0 0-2.063 1.924c-.42.677-.772 1.394-1.05 2.14a25.57 25.57 0 0 0-.416 3.016c-.055 1.608.07 3.218.372 4.799a7.33 7.33 0 0 0 1.765 3.33 5.783 5.783 0 0 0 4.541 1.963c.496-.02.991-.02 1.487 0 .442.012.883-.055 1.301-.199a6.551 6.551 0 0 0 4.044-3.392c.523-1.195.844-2.468.952-3.767.047-.574.054-1.15.02-1.725-.066-.779.023-1.671-.145-2.584Zm-5.215 3.788a14.897 14.897 0 0 0-.158 1.587 6.149 6.149 0 0 1-.258 1.487 3.318 3.318 0 0 1-.575.991h-1.618a2.201 2.201 0 0 1-.893-1.903 27.927 27.927 0 0 1-.258-3.866c.06-.952.238-1.904.258-2.876a2.315 2.315 0 0 1 1.15-1.903c.438.06.992.12 1.467.186.186.357.318.595.417.853.129.314.228.64.297.972.099.735.158 1.469.199 2.182.011.785.011 1.528-.035 2.29h.007Z"/>
      <path d="M103.535 24.148c.416 0 .951-.02 1.486 0a3.873 3.873 0 0 0 2.361-.773c.476-.318.892-.694 1.427-1.091.339.594.655 1.15.93 1.626h5.711a321.89 321.89 0 0 0-1.368-2.717c0-1.448.041-2.954 0-4.482.122-2.189.056-4.385-.199-6.562a4.17 4.17 0 0 0-2.081-3.093 7.76 7.76 0 0 0-2.955-.755 6.549 6.549 0 0 0-1.389 0c-.473.037-.942.104-1.407.199a3.846 3.846 0 0 0-.991.238 24.272 24.272 0 0 0-3.431 1.546c-.158.12-.336.238-.475.339.297.633.594 1.169.812 1.745.217.6.518 1.168.892 1.686a7.472 7.472 0 0 1 5.254-1.33 3.125 3.125 0 0 1 .774 2.718c-.259.119-.558.372-.813.372a8.39 8.39 0 0 0-2.518.416 7.945 7.945 0 0 0-2.974 1.19 4.215 4.215 0 0 0-2.004 3.47c-.017.225-.07.446-.158.654.078.977.334 1.931.755 2.816a4.982 4.982 0 0 0 2.361 1.788Zm2.141-6.862a5.75 5.75 0 0 1 1.288-.972c.595-.2 1.15-.714 1.923-.456v4.244c-.633.693-1.447.416-2.102.476a1.502 1.502 0 0 1-1.228-1.35 9.497 9.497 0 0 1 .119-1.942Z"/>
      <path d="M80.453 24.35c.357-.37.813-.098 1.21-.198.398-.1.794-.186 1.21-.277.794-.318 1.627-.634 2.38-.93-.634-1.269-1.172-2.557-1.86-3.767a8.515 8.515 0 0 1-2.3.853 8.699 8.699 0 0 1-3.212-.018c-.536-.128-1-.462-1.29-.93a2.419 2.419 0 0 1-.574-1.843H84.9v-2.591a9.776 9.776 0 0 0-.158-2.4 2.945 2.945 0 0 1-.217-.892c.02-.372-.238-.634-.337-.952a5.667 5.667 0 0 0-2.379-3.16 5.303 5.303 0 0 0-2.974-.951c-.535.019-1.05-.02-1.585.019-.47.029-.936.109-1.389.237a7.072 7.072 0 0 0-3.232 2.638 11.753 11.753 0 0 0-1.19 3.966c0 1.35-.02 2.718 0 4.065-.008.57.066 1.137.218 1.686a7.827 7.827 0 0 0 2.063 3.51 6.974 6.974 0 0 0 3.946 1.724 1.7 1.7 0 0 1 .456.08 8.472 8.472 0 0 0 2.33.132ZM76.448 10.73c.14-.14.336-.357.535-.575.04-.04.02-.118.02-.198.314-.123.64-.21.973-.259.34.042.673.129.99.259.463.698.736 1.504.794 2.34.06.557.158 1.115.258 1.724h-4.005a8.168 8.168 0 0 1 .435-3.297v.006Z"/>
      <path d="M43.352 49.154a5.663 5.663 0 0 1-4.045.372 2.829 2.829 0 0 1-1.944-3.015h8.884c-.08-1.228-.039-2.416-.158-3.61a11.22 11.22 0 0 0-1.15-4.105 5.8 5.8 0 0 0-4.998-3.16 7.721 7.721 0 0 0-1.903.14 6.342 6.342 0 0 0-2.757 1.228 7.177 7.177 0 0 0-2.122 3.272 8.78 8.78 0 0 0-.558 2.836 14.79 14.79 0 0 0 .158 4.481c.132.819.4 1.61.794 2.34.336.515.633 1.07 1.01 1.567.281.336.609.63.973.874a4.26 4.26 0 0 0 1.19.693c.96.382 1.98.59 3.014.613a17.94 17.94 0 0 0 3.093-.158 10.966 10.966 0 0 0 2.241-.574c.218-.099.515.06.694-.258.098-.186.437-.2.734-.339-.575-1.21-1.15-2.416-1.766-3.687-.451.173-.93.312-1.384.49Zm-6.028-7.237c.039-.476.158-.93.277-1.586.238-.278.595-.674.972-1.115.574.04 1.15-.119 1.487.12a5.435 5.435 0 0 1 1.01 4.203h-3.746c0-.572-.048-1.107 0-1.624v.002Z"/>
      <path d="M98.677 15.641a8.68 8.68 0 0 0-3.55-2.182 4.599 4.599 0 0 0-.929-.372 7.582 7.582 0 0 1-2.141-.812c-.372-.186-.654-.396-.615-.872 0-.06-.12-.14-.158-.199.217-.371.199-.892.734-1.09a4.899 4.899 0 0 1 2.379.276 7.378 7.378 0 0 1 2.896 1.904c.574-1.229 1.13-2.46 1.706-3.718a7.035 7.035 0 0 0-5.39-2.26c-.535.02-1.05.02-1.587 0a4.182 4.182 0 0 0-1.41.2 5.587 5.587 0 0 0-3.014 2.3 6.32 6.32 0 0 0-.892 2.301 5.777 5.777 0 0 0 .02 2.26 5.404 5.404 0 0 0 2.915 3.452c.884.351 1.8.617 2.736.793a3.73 3.73 0 0 1 2.063.952c-.08.372-.158.794-.238 1.17a6.133 6.133 0 0 1-5.968-.715c-.654 1.301-1.301 2.602-1.983 3.967.695.277 1.3.535 1.944.752 1.464.464 2.985.724 4.52.774.41-.015.815-.078 1.21-.186a10.2 10.2 0 0 0 1.587-.238 6.195 6.195 0 0 0 2.956-1.944 7.063 7.063 0 0 0 1.3-3.431c.06-.417-.185-.735-.198-1.116a3.108 3.108 0 0 0-.892-1.966Z"/>
      <path d="M123.483 19.983a6.465 6.465 0 0 1-5.433-.972c-.336.615-.675 1.229-.991 1.858-.315.63-.635 1.33-.972 2.045.736.382 1.507.694 2.301.93.929.28 1.887.452 2.855.514a.743.743 0 0 1 .476.04c.396.317.833.185 1.231.139a8.25 8.25 0 0 1 1.011-.186 5.47 5.47 0 0 0 1.115-.2 5.221 5.221 0 0 0 2.082-.928 6.11 6.11 0 0 0 1.765-2.121c.294-.816.5-1.66.615-2.519.04-.158.06-.395-.02-.475-.318-.298-.08-.694-.217-.991a4.593 4.593 0 0 0-2.004-2.439 19.217 19.217 0 0 0-1.528-.853c-1.07-.496-2.182-.793-3.271-1.21-.675-.258-1.409-.595-1.468-1.528.338-.674.338-.674.873-1.01a7.005 7.005 0 0 1 5.176 2.122c.558-1.21 1.116-2.4 1.673-3.59a6.81 6.81 0 0 0-2.602-1.824 5.621 5.621 0 0 0-2.676-.497c-.661.04-1.323.04-1.984 0a4.479 4.479 0 0 0-2.2.675 6.074 6.074 0 0 0-2.638 3.232 3.525 3.525 0 0 0-.198 1.011c-.021.794 0 1.586 0 2.281.073.094.139.194.198.297a4.947 4.947 0 0 0 2.954 3.074c.851.362 1.744.615 2.658.753.674.186 1.468.186 1.903.913v.743c-.247.26-.459.498-.684.716Z"/>
      <path d="M129.195 46.536a4.165 4.165 0 0 0-1.766-2.32 11.138 11.138 0 0 0-2.974-1.427 22.145 22.145 0 0 1-2.498-.913 1.447 1.447 0 0 1-.951-1.487c.277-.297.476-.558.635-.734a5.511 5.511 0 0 1 2.974.357 7.224 7.224 0 0 1 2.379 1.645c.595-1.19 1.171-2.32 1.725-3.431a6.294 6.294 0 0 0-5.492-2.578 6.864 6.864 0 0 0-2.102.185 6.388 6.388 0 0 0-3.331 1.746 6.11 6.11 0 0 0-.496.871c-.158.259-.558 1.33-.675 1.606a5.9 5.9 0 0 0-.186 2.201c.033.53.168 1.049.396 1.528a5.053 5.053 0 0 0 2.301 2.379c.983.52 2.055.85 3.16.972a3.2 3.2 0 0 1 1.885.912v.815a3.386 3.386 0 0 1-3.292.832 7.371 7.371 0 0 1-2.836-1.15 745.79 745.79 0 0 0-1.984 3.927c.631.32 1.288.584 1.963.794 1.184.423 2.43.644 3.688.654.436 0 .853-.02 1.288 0a6.329 6.329 0 0 0 2.416-.396 5.477 5.477 0 0 0 3.531-3.093c.197-.559.337-1.137.417-1.724.098-.372.277-.794.08-1.071-.275-.387.102-.824-.255-1.1Z"/>
      <path d="M87.533 42.967c1.704-.338 3.346-.675 5.117-1.032a2.016 2.016 0 0 0-.019-.773 11.38 11.38 0 0 0-1.17-2.895 6.657 6.657 0 0 0-1.826-1.826 5.7 5.7 0 0 0-2.557-.752 7.529 7.529 0 0 0-2.896.139 9.023 9.023 0 0 0-2.498 1.15 7.048 7.048 0 0 0-1.924 2.578 7.21 7.21 0 0 0-.773 2.837 26.21 26.21 0 0 0 .158 5.576c.208.926.541 1.82.99 2.658a6.79 6.79 0 0 0 1.25 1.466c.406.444.899.802 1.448 1.05a4.71 4.71 0 0 0 1.646.535c1.444.189 2.91.067 4.303-.356a5.82 5.82 0 0 0 2.082-1.389 6.593 6.593 0 0 0 1.546-2.914c.099-.416.318-.812.12-1.229a686.118 686.118 0 0 1-4.833-1.01c-.06.297-.12.535-.158.772 0 .289-.04.576-.12.854-.117.389-.328.743-.614 1.031a1.245 1.245 0 0 1-1.963-.496 4.99 4.99 0 0 1-.558-2.242 21.521 21.521 0 0 1 .186-5.176c.199-.853.437-1.706 1.526-1.944.423.108.79.37 1.032.734.257.462.4.979.416 1.507-.003.384.027.768.09 1.147Z"/>
      <path d="M65.283 13.52a77.582 77.582 0 0 1 2.221-1.19c.18-.121.382-.21.595-.258a13.733 13.733 0 0 0 2.379-.475c.073-.388.126-.778.158-1.171a5.8 5.8 0 0 1 .039-1.673c.146-.804.213-1.621.199-2.439h-1.626c-.1-.003-.2.004-.298.02a8.04 8.04 0 0 0-2.182 1.19 4.765 4.765 0 0 0-1.09 1.924c-.04.186-.239.336-.417.576a31.996 31.996 0 0 0-1.785-3.69h-3.903v17.591h5.73c-.02-3.503-.02-6.955-.02-10.405Z"/>
      <path d="m93.897 36.084-.04.041v17.371h5.692v-17.43h-5.576a.123.123 0 0 0-.076.018Z"/>
      <path d="m93.897 29.345-.04.039v4.68h5.692v-4.74h-5.552a.087.087 0 0 0-.1.02Z"/>
      <path d="M68.177 34.044h3.868l4.682-4.68h-6.32a277.63 277.63 0 0 0-2.23 4.68Z"/>
      <path d="M27.787 4.615c.238 1.33 1.15 1.673 2.578 1.012-.02-.558-.02-.558-.357-.893a1.087 1.087 0 0 1-1.05.099c.594-.336 1.269-.336 1.706-.872.476-.595.258-1.29.318-1.825-.186-.372-.318-.654-.476-.952-1.33-.594-.952-.832-2.788-.436-1.091 1.09-1.091 1.09-1.07 2.637.144.695.739.894 1.139 1.23Zm.496-2.854h1.031a1.21 1.21 0 0 1 .218 1.706 1.083 1.083 0 0 1-1.567-.218c-.3-.656-.3-.678.316-1.488h.002Z"/>
      <path d="M41.05 4.692c.08-.675-.04-1.33.098-2.082a17.367 17.367 0 0 1 1.588 2.12h1.01l.26-.258V.79h-1.369v1.745c-.515-.675-.912-1.19-1.3-1.745h-1.438v3.669l.238.237.913-.003Z"/>
      <path d="M49.18 31.96c-.535-.693-.99-1.301-1.407-1.844h-1.29v3.904h1.169v-2.023c.595.753 1.115 1.428 1.567 2.023h1.15v-3.904h-1.19v1.844Z"/>
      <path d="M41.27 30.91c-.278-.277-.536-.515-.794-.773h-2.738v3.903h1.19v-.93h.654c.199.357.371.675.557.993.407.02.815-.02 1.21-.119-.238-.357-.455-.675-.693-1.031.217-.186.437-.357.496-.398a1.768 1.768 0 0 0 .117-1.645Zm-1.449 1.15h-.871v-.929h1.115c.052.353.09.678-.244.93Z"/>
      <path d="M51.223 30.137v3.886h2.438c.298-.14.575-.279.773-.372.2-.278.357-.515.515-.695v-1.704c-.199-.277-.336-.476-.496-.693-.258-.14-.558-.277-.812-.417l-2.418-.005Zm2.539 2.48c-.12.098-.318.237-.595.436h-.753v-2.045c.496.158.913.318 1.329.456.019.418.019.754.019 1.152Z"/>
      <path d="m35.657 31.13.336.336c.297-.238.574-.476.874-.714a62.878 62.878 0 0 1-.714-.654c-2.004-.08-2.26.02-2.994 1.329-.08 1.031-.12 2.003.929 2.617.357-.04.714.371 1.15.199.357-.159.675-.372 1.011-.558.052.115.092.234.12.357h.734v-1.115c0-.357-.02-.696-.02-1.011h-1.945v.752c.258.099.496.2.952.372h-1.17a10.575 10.575 0 0 1-.574-.437v-1.031a1.3 1.3 0 0 1 1.31-.443Z"/>
      <path d="M62.605 31.923a3.5 3.5 0 0 0-2.063-.416v-.343c.594-.258 1.13.099 1.645.14.198-.318.371-.615.557-.913a3.396 3.396 0 0 0-3.312.06c-.039.476-.099 1.01-.14 1.546.734.457 1.575.71 2.44.734-.021.14-.04.218-.06.357-.675-.08-1.368.14-2.045-.238-.186.2-.357.417-.496.558.199.277.336.476.396.557.474.13.958.217 1.448.259.43-.039.855-.119 1.27-.238l.633-.634a8.33 8.33 0 0 0-.02-.99c.005-.103-.134-.222-.253-.44Z"/>
      <path d="M49.28 3.506a9.31 9.31 0 0 1-.437.713c.913.755 2.004.437 2.955.517.357-.336.675-.615 1.032-.93a54.4 54.4 0 0 0-.238-1.13 3.39 3.39 0 0 0-2.102-.495c-.08-.14-.277-.2-.238-.417.535.099 1.115-.14 1.686.218.199-.28.416-.595.654-.93-1.626-.436-1.228-.635-2.875-.258-1.011 1.011-.972 1.673.06 2.301l1.784.318c0 .119-.02.197-.02.277a5.498 5.498 0 0 1-2.261-.184Z"/>
      <path d="M33.197 4.755c.298.238.496-.04.734-.04a1.591 1.591 0 0 0 1.586-1.586c.02-.774 0-1.567 0-2.36h-1.115a6.768 6.768 0 0 0-.277 2.657l-.259.258h-.853l-.258-.258V2.069c.026-.434.014-.87-.04-1.3h-1.124v3.053l.872.873c.243.02.576-.08.734.06Z"/>
      <path d="M58.7 31.109v-.99h-1.606c-.515 0-1.032-.021-1.508.02v3.923h3.075c.02 0 .039-.039.02-.02v-.892c-.675-.08-1.329.039-2.044-.1.158-.218.258-.372.395-.558h1.448V31.5c-.436.119-.892-.158-1.249.217-.02-.276-.693-.059-.416-.574.615-.035 1.23-.035 1.885-.035Z"/>
      <path d="M23.064 4.692h3.12V3.72h-1.923v-.575h1.725v-.972c-.595-.119-1.19.06-1.785-.098.04-.14.06-.238.099-.357h1.859v-.93h-3.134c.039 1.33-.04 2.638.039 3.904Z"/>
      <path d="M39.287 3.703h-1.945v-.576h1.746V2.116h-1.785c.02-.158.04-.259.06-.372h1.903V.768h-3.093v3.903h3.114v-.968Z"/>
      <path d="M45.474 4.695c.039-.08.158-.237.238-.356h1.626l.337.338h1.09c-.08-.259-.139-.496-.237-.734-.259-.616-.456-1.27-.753-1.859-.258-.515-.217-1.21-.913-1.528h-.793c-.734 1.19-.913 2.578-1.627 3.729-.059.098 0 .258 0 .395.337.015.616.015 1.032.015Zm1.07-2.658c.159.476.259.813.417 1.289h-.892c.137-.396.277-.774.476-1.289Z"/>
      <path d="M41.626 34.044h1.19c.038-.14.08-.259.098-.318H44.6c.036.11.063.223.08.338h1.288a253.368 253.368 0 0 0-1.547-3.903h-1.288c-.476 1.266-.992 2.535-1.507 3.883Zm2.162-2.439c.158.396.297.695.455 1.05h-.944c.152-.316.29-.64.489-1.05Z"/>
      <path d="M19.873 3.723h1.686l.871-.873c.08-.814.08-1.606-.713-2.082H18.9v3.887h.972v-.932Zm0-1.944h1.091c.336.417.336.417.02.93H19.87l.004-.93Z"/>
    </g>
    <defs>
      <clipPath id="a">
        <path fill="#fff" d="M.408.55h129.158v60.9H.408z"/>
      </clipPath>
    </defs>
  </svg>