<svg xmlns="http://www.w3.org/2000/svg" fill="none" viewBox="0 0 223 52">
    <g fill="#000" clip-path="url(#a)" opacity=".25">
      <path d="M62.166 7.062c3.03-2.018 6.057-4.005 9.053-6.026.302-.209.547-.488.716-.814H28.913a1.174 1.174 0 0 0-.852.294c-1.368 1.01-2.767 1.987-4.135 2.964a191.162 191.162 0 0 0-3.29 2.248c-1.4.977-2.768 1.986-4.136 2.964-1.042.716-2.182 1.335-3.19 2.117-1.76 1.433-3.718 2.572-5.577 3.903a21.293 21.293 0 0 0-2.702 2.084A10.258 10.258 0 0 0 2.49 20.93c-.359 1.27-.848 2.476-1.173 3.745a18.044 18.044 0 0 0-.764 4.402v2.765c.03.354.096.703.195 1.043a6.392 6.392 0 0 0 2.247 3.485A6.35 6.35 0 0 0 6.22 38c.456.099.88.26 1.335.326.455.065.977-.099 1.334.325a14.055 14.055 0 0 0 3.485-.229 1.857 1.857 0 0 1 2.508 1.954v1.139h7.49c0-.783.033-1.467 0-2.182a4.229 4.229 0 0 0-2.346-3.875c-.684-.326-.715-.558-.358-1.115.82-1.28 1.414-2.69 1.758-4.17.294-1.042.489-2.083.716-3.126.324-1.192.52-2.415.585-3.648-.034-.814 0-1.628 0-2.443a5.563 5.563 0 0 0-1.693-4.005c-.744-.743-1.628-1.334-2.541-2.083h6.84c.65 0 .782.195.557.879a4.618 4.618 0 0 0-.228.715c-.164.744-.26 1.498-.456 2.247-.39 1.532-.743 3.062-1.204 4.56-.359 1.27-.585 2.572-.88 3.843a14.303 14.303 0 0 0-.717 5.244 3.4 3.4 0 0 1 0 .814c-.058.627.09 1.257.424 1.791a6.016 6.016 0 0 0 3.608 3.017c.487.158.989.267 1.498.325.561.05 1.117.149 1.662.294a14.712 14.712 0 0 0 5.899-.619c.52-.164 1.01-.489 1.531-.619A4.95 4.95 0 0 0 39.63 35.5a10.738 10.738 0 0 0 1.628-3.224c.405-1.194.732-2.413.977-3.649.26-1.662.815-3.256 1.14-4.918.195-1.074.585-2.148.847-3.225.359-1.661.65-3.321.978-4.95a.731.731 0 0 1 .782-.65h4.364c-.944 2.019-1.858 3.94-2.735 5.896-1.043 2.28-2.281 4.46-3.257 6.775-.975 2.314-2.182 4.527-3.191 6.806-.424.978-1.01 1.859-1.466 2.801a.557.557 0 0 0 .423.814h6.188a.81.81 0 0 0 .847-.558c.229-.847.814-1.498 1.043-2.345.347-1.05.772-2.074 1.27-3.061a.894.894 0 0 1 .847-.586c1.238.034 2.476 0 3.717 0a11.596 11.596 0 0 1-.065 3.387 26.094 26.094 0 0 0-.294 3.094h7.785c.13-3.94.293-7.849.39-11.758.065-2.28-.034-4.559.033-6.84.032-1.204.26-2.416.294-3.614.034-1.075-.098-1.205-1.173-1.205h-10.08a828.037 828.037 0 0 0 2.965-1.987c2.742-1.76 5.51-3.617 8.279-5.44ZM14.454 25.853c-.094.396-.16.799-.195 1.204-.099.39-.195.783-.325 1.173a16.392 16.392 0 0 1-1.628 4.528c-.424.65-.783 1.4-1.759 1.334-.455.783-.977.13-1.334-.065a2.921 2.921 0 0 1-1.043-3.345 7.2 7.2 0 0 0 .26-1.368c.099-.456.229-.88.325-1.335a34.32 34.32 0 0 1 1.173-5.048 15.538 15.538 0 0 1 1.115-3.126 2.633 2.633 0 0 1 3.16-1.27 1.593 1.593 0 0 1 1.075 1.302c.033.488 0 .977 0 1.466.033 0 .098.034.13.034-.337 1.52-.565 3.051-.956 4.518l.002-.002Zm22.276-7.587c-.359 1.335-.557 2.67-.912 4.005a32.531 32.531 0 0 0-.945 3.81c-.228 1.629-.743 3.192-1.074 4.788-.13.586-.455 1.116-.585 1.694-.164.847-.848.977-1.465 1.172a1.333 1.333 0 0 1-1.532-1.204c-.054-1.315.09-2.63.424-3.903.26-1.334.684-2.637.944-4.005.229-1.368.716-2.736 1.01-4.136.13-.65.423-1.238.557-1.888.164-.65.195-1.335.359-1.987.098-.558.293-1.074.455-1.727h3.68c-.33 1.199-.624 2.307-.916 3.381Zm15.308 8.044c.164-.52.424-1.009.619-1.498.619-1.433 1.204-2.866 1.922-4.299.101 1.296.024 2.6-.229 3.875a8.651 8.651 0 0 0-.033 2.602c-.684 0-1.27-.033-1.859 0-.552-.03-.487-.42-.42-.68Z"/>
      <path d="M118.606 25.66c.423-.586.098-1.238.195-1.859.065-.39-.164-.88.26-1.204a.486.486 0 0 0 0-.424c-.424-.325-.229-.814-.26-1.205a6.764 6.764 0 0 0-3.387-5.438 9.168 9.168 0 0 0-4.689-1.301c-.39 0-.848.13-1.204-.26a.921.921 0 0 0-.783-.034c-.526.22-1.091.331-1.662.325a8.954 8.954 0 0 0-1.823.326 8.581 8.581 0 0 0-4.559 2.67 11.989 11.989 0 0 0-2.346 4.235 48.083 48.083 0 0 0-1.693 7.434 8.862 8.862 0 0 0 0 2.931 6.797 6.797 0 0 0 1.662 3.876 8.177 8.177 0 0 0 3.345 2.148 2.862 2.862 0 0 1-.619.164h-5.204c-1.074 0-1.204-.099-1.204-1.205v-6.685a3.467 3.467 0 0 0-1.205-2.931c-.294-.229-.585-.39-.879-.586-.325-.228 0-.358.097-.424.177-.095.364-.172.557-.228a6.833 6.833 0 0 0 3.844-3.225 6.72 6.72 0 0 0 .848-3.875 4.204 4.204 0 0 0-2.508-3.615 14.858 14.858 0 0 0-3.778-.684H64.734a2.45 2.45 0 0 0-.977.033c-.311.138-.565.38-.718.684a19.483 19.483 0 0 0-.358 1.987c-.164.718-.36 1.433-.558 2.182h1.953c.651 0 1.302-.033 1.954 0 .716.034.88.294.65 1.075-.164.589-.294 1.187-.39 1.791a24.495 24.495 0 0 0-.978 4.788c-.65.39-.098 1.204-.618 1.727-.326.325-.26 1.074-.36 1.628a36.76 36.76 0 0 1-.324 1.823 28.422 28.422 0 0 0-1.01 4.3c-.489.423-.293.944-.228 1.432h7.538c.913-.879.326-1.888.848-2.67.21-.52.331-1.07.359-1.629a4.985 4.985 0 0 1 .423-1.758c.39-.52-.13-1.238.52-1.596.097-1.173.326-2.331.685-3.452.489-2.216 1.074-4.43 1.596-6.645.13-.557.39-.814.945-.814h3.386c-.163.558-.325.978-.424 1.4-.13.585-.228 1.204-.325 1.823s-.033 1.368-.359 1.792c-.489.557.065 1.334-.619 1.727a9.397 9.397 0 0 1-.618 2.832c-.164.978-.52 1.889-.651 2.833-.229 1.987-.978 3.843-1.335 5.797-.065.358-.195.424-.52.424h-3.974c-.489 2.215-1.204 4.429-1.693 6.676a53.634 53.634 0 0 0-1.693 7.001h43.251c.39.034.358-.195.423-.488.196-.945.521-1.859.684-2.833.13-.783.456-1.563.653-2.346.266-.822.483-1.659.65-2.507.153-.788.371-1.561.653-2.312a8.13 8.13 0 0 1 .879-2.736c.163-.229 0-.489-.39-.489-.794.061-1.592.028-2.378-.098a9.933 9.933 0 0 0 5.732-6.32c.585-1.316.917-2.73.978-4.169.838-.516.219-1.299.61-1.82Zm-31.722 8.793c.028.369-.04.739-.195 1.074-.17.448-.192.938-.065 1.4.228 1.115.26 1.115-.848 1.115h-3.16c.051-.803.182-1.6.39-2.377.651-1.628.783-3.346 1.27-5.019.13-.423.229-.879.326-1.334.065-.229.065-.586.195-.684a1.26 1.26 0 0 1 .782-.034c.944.196 1.27.651 1.27 1.629.035 1.396.035 2.797.035 4.23Zm2.637-13.158c-.163.164.032.651-.033.945a3.104 3.104 0 0 1-3.29 2.442c-.163 0-.325-.034-.557-.034a3.308 3.308 0 0 1 .26-1.628c.293-1.082.522-2.18.684-3.29.26-1.334.424-1.464 1.693-1.042.558.195 1.238.098 1.27 1.043.007.522.496.977-.027 1.564Zm21.789.066c-.13.488.186 1.139-.228 1.758-.359.52.163 1.27-.424 1.758a19.718 19.718 0 0 1-1.043 4.95 6.701 6.701 0 0 1-1.858 3.778 2.158 2.158 0 0 1-2.281.49 1.965 1.965 0 0 1-1.301-1.923 2.726 2.726 0 0 1 .26-1.858c.326-.456.065-1.205.229-1.824.294-1.172.585-2.377.782-3.581a20.14 20.14 0 0 1 1.987-5.537 2.604 2.604 0 0 1 3.452-.52c.256.32.415.707.455 1.115.036.416-.03.84-.03 1.394Z"/>
      <path d="M219.503 14.88a8.574 8.574 0 0 0-2.508-.62c-.977 0-1.858-.39-2.801-.39-1.346.053-2.681.271-3.973.65a8.223 8.223 0 0 0-5.504 4.006 8.435 8.435 0 0 0-.944 4.33 3.583 3.583 0 0 0 .619 2.216c.52.651.684 1.467 1.563 1.954a19.656 19.656 0 0 0 3.81 1.859c.716.228 1.337.65 2.045.944a2.178 2.178 0 0 1 1.433 2.345 2.521 2.521 0 0 1-1.758 2.149 2.163 2.163 0 0 1-2.443-.65 2.006 2.006 0 0 1-.684-1.694 6.96 6.96 0 0 0 0-1.173c-2.312 0-4.527.034-6.741-.033-.558 0-.294.585-.652.619-.456-5.634.557-11.27.195-16.871h-10.52a1.092 1.092 0 0 0-1.207.743c-.325.783-.879 1.467-1.204 2.28-.814 1.988-1.859 3.904-2.702 5.863-1.116 2.54-2.541 4.918-3.582 7.49-.684 1.662-1.628 3.225-2.442 4.853-.229.456-.489.88-.684 1.335-.261.585-.097.88.557.88 1.889 0 3.811-.034 5.699.032.846.034 1.399-.13 1.498-1.074.032-.195.229-.325.294-.52a33.117 33.117 0 0 1 1.953-4.56c.065-.163.26-.358.39-.358 1.27-.034 2.573 0 3.844 0a23.253 23.253 0 0 1-.325 6.057c-.097.325.065.489.424.456h7.36c-.154-1.668.023-3.35.52-4.95.066.156.11.32.13.489a4.01 4.01 0 0 0 2.346 3.717c.476.284.978.524 1.498.716.48.185.985.295 1.498.325.561.07 1.116.18 1.662.325a27.445 27.445 0 0 0 5.896-.325 16.043 16.043 0 0 0 4.494-2.507 15.862 15.862 0 0 0 2.087-3.387 6.793 6.793 0 0 0 .26-4.46 6.296 6.296 0 0 0-4.624-4.625c-1.074-.424-2.182-.743-3.225-1.27a2.327 2.327 0 0 1-1.4-1.368c-.325-1.204.097-1.791 1.238-2.377a2.084 2.084 0 0 1 2.045.164 1.514 1.514 0 0 1 .912 1.693c-.022.305-.011.61.032.913 1.693 0 3.256-.034 4.82 0 1.953.033 1.921.033 1.953-1.922a4.491 4.491 0 0 0-3.152-4.27Zm-25.836 10.65c-.043.395-.153.78-.325 1.139a.492.492 0 0 1-.327.229 4.353 4.353 0 0 1-.65 0c-1.595 0-1.66-.099-.88-1.532a49.836 49.836 0 0 0 2.182-5.018c.041 1.99.075 3.585.008 5.182h-.008Z"/>
      <path d="M180.811 31.295c.358-1.204.847-2.377 1.115-3.581.513-1.7.756-3.47.717-5.244a8.256 8.256 0 0 1 0-1.791 4.832 4.832 0 0 0-.358-2.149 4.99 4.99 0 0 0-2.602-3.03 12.132 12.132 0 0 0-4.495-.879c-3.191-.195-6.384-.065-9.607-.065-.651 0-1.074.26-1.173.88-.229 1.562-.65 3.094-1.009 4.624-.294 1.238-.521 2.475-.879 3.717-.424 1.4-.716 2.832-1.043 4.275-.164.65-.195 1.334-.359 1.987-.163.652-.39 1.238-.557 1.888a20.496 20.496 0 0 0-.684 3.126c-.097.978-.489 1.859-.716 2.965h12.18c.884-.022 1.766-.11 2.637-.26a8.416 8.416 0 0 0 5.374-3.517 10.31 10.31 0 0 0 1.459-2.946ZM174.883 24c-.293 1.238-.455 2.507-.717 3.779a16.768 16.768 0 0 1-2.117 4.983 4.383 4.383 0 0 1-2.866 1.334 8.196 8.196 0 0 1-1.271 0c.358-1.334.743-2.476 1.009-3.68.154-1.166.393-2.32.715-3.451.373-1.038.656-2.106.846-3.192.294-1.498.684-2.996 1.043-4.46.186-.783.186-.744 1.115-.558.325.028.652.039.978.033a1.594 1.594 0 0 1 1.498 1.563 17.283 17.283 0 0 1-.233 3.649Z"/>
      <path d="M140.588 18.625a3.911 3.911 0 0 0-.913-2.212 3.63 3.63 0 0 0-1.953-1.238 13.58 13.58 0 0 1-1.66-.325 5.101 5.101 0 0 0-1.824-.294H123.98c-1.115 0-1.115 0-1.301 1.115a6.254 6.254 0 0 1-.39 1.629 16.256 16.256 0 0 0-.847 3.224c-.229 1.116-.521 2.182-.744 3.29-.325 1.532-.782 3.061-1.043 4.625a32.97 32.97 0 0 1-.944 3.843c-.39 1.335-.585 2.671-.912 4.006-.13.52-.261 1.074-.456 1.758h6.97c.489 0 .913-.164.944-.62.196-1.367.716-2.67.945-4.005.26-1.399.743-2.767.977-4.168.13-.783.456-.716.913-.684a1.597 1.597 0 0 1 1.399 1.498c.126 1.43.038 2.87-.26 4.275a5.964 5.964 0 0 0 0 2.736c.034.293.099.944.783.912 2.54-.033 5.079 0 7.49 0-.08-.42-.135-.843-.163-1.27 0-2.181-.034-4.33 0-6.505a3.8 3.8 0 0 0-2.313-3.778c.227-.164.391-.424.619-.456a6.708 6.708 0 0 0 4.941-7.356Zm-8.11 2.93c-.078.4-.186.792-.325 1.174a2.688 2.688 0 0 1-2.637 1.953c-.391 0-.744 0-1.14-.033-.033 0-.065-.065-.098-.099.423-1.693.879-3.42 1.269-5.113.195-.913.39-1.043 1.368-.716.147.052.3.085.456.099a1.326 1.326 0 0 1 1.115 1.465c-.008.392.026.849-.008 1.27Z"/>
      <path d="M160.847 26.431c.153-.709.262-1.426.325-2.149a7.824 7.824 0 0 0 0-3.973 7.595 7.595 0 0 0-4.461-5.407 9.974 9.974 0 0 0-1.758-.49c-1.115-.423-2.312.164-3.387-.488a.633.633 0 0 0-.489 0c-.977.65-2.182 0-3.159.65a9.013 9.013 0 0 0-5.699 3.81c-.13.88-.847 1.467-1.173 2.281-.293.716-.358 1.467-.715 2.15a9.772 9.772 0 0 0-.66 2.315 33.87 33.87 0 0 0-.489 2.602c-.13.787-.216 1.58-.26 2.377v1.563a10.587 10.587 0 0 0 1.043 2.997 7.134 7.134 0 0 0 4.2 3.19c1.995.645 4.096.898 6.188.744a3.25 3.25 0 0 1 1.336-.26 3.901 3.901 0 0 0 1.823-.359 9.154 9.154 0 0 0 4.625-3.55 17.265 17.265 0 0 0 2.312-6.057c.064-.66.197-1.313.398-1.946Zm-7.85-1.301a9.584 9.584 0 0 1-.684 3.451 15.371 15.371 0 0 1-1.858 4.788c-.558.744-1.368.456-1.859 1.043-.39-.52-1.336-.163-1.563-.913-.229-.684-.651-1.466-.455-2.044.132-.612.219-1.234.26-1.859a14.9 14.9 0 0 1 .325-1.661c.325-1.498.586-2.996 1.043-4.461.195-.684.325-1.368.585-2.045a5.631 5.631 0 0 1 1.954-2.767 2.492 2.492 0 0 1 2.15-.13 1.221 1.221 0 0 1 .814 1.238c.023.308.112.608.261.879-.545 1.557-.257 3.12-.973 4.48Z"/>
    </g>
    <defs>
      <clipPath id="a">
        <path fill="#fff" d="M.544.219h222.124v51.563H.544z"/>
      </clipPath>
    </defs>
  </svg>