<svg xmlns="http://www.w3.org/2000/svg" fill="none" viewBox="0 0 154 62">
    <g fill="#000" clip-path="url(#a)" opacity=".25">
      <path d="M139.873 36.814V33.84c0-4.318.049-8.635 0-12.951-.048-3.405-1.198-5.037-3.933-5.373a47.977 47.977 0 0 0-5.899-.049v9.498c-3.16-6.667-8.156-10.314-15.494-10.314-7.248 0-12.425 3.645-15.733 10.362-.625-9.306-2.591-11.08-10.026-9.306v2.303c0 4.647.049 9.258 0 13.912-.048 3.214-1.247 4.7-3.693 4.989-3.213.383-4.989-1.008-5.133-4.413-.186-3.981-.049-8.01-.097-11.992-.097-3.55-1.63-5.085-5.18-5.18-1.487-.048-2.974 0-4.606 0 0 6.044-.048 11.71 0 17.365.097 5.277 1.632 10.074 6.955 12.04 5.948 2.207 12.137 2.495 17.509-1.726a15.386 15.386 0 0 0 3.262-5.18c.39-.968.648-1.985.767-3.022a17.005 17.005 0 0 0 25.029 8.687 17.006 17.006 0 0 0 6.535-7.537v9.403h18.756a4.968 4.968 0 0 0 4.646-2.788v-5.761l-13.665.007ZM114.209 37a6.288 6.288 0 0 1-6.381-6.62 6.452 6.452 0 0 1 1.764-4.808 6.451 6.451 0 0 1 4.712-2.005 6.715 6.715 0 0 1 6.518 6.763 6.72 6.72 0 0 1-6.615 6.668l.002.002Z"/>
      <path d="M27.672.933a30.296 30.296 0 0 0-6.907 58.523c2.015.72 4.127 1.199 6.134 1.823h8.635c.528-.143 1.056-.383 1.584-.48A30.33 30.33 0 0 0 27.668.935l.004-.001Zm6.716 1.918c13.047 1.007 23.697 13.382 22.065 25.327a10.441 10.441 0 0 0-7.722-2.639c-.576.049-1.301-.816-1.824-1.344-9.257-9.594-24.32-11.224-34.442-3.598a49.539 49.539 0 0 0-4.989 4.647c.431-11.992 11.081-23.592 26.912-22.4v.007Zm20.915 32.476c-.48 1.247-1.056 2.398-1.775 3.981-.768-3.405-1.39-6.236-2.063-9.066 3.741-.143 5.132 1.583 3.838 5.085Zm-22.594 15.83a52.98 52.98 0 0 1-7.052-1.056A24.618 24.618 0 0 1 7.91 32.017a4.693 4.693 0 0 1 .91-4.461c5.086-6.764 15.64-9.546 24.561-6.38a25.807 25.807 0 0 1 9.93 6.092c-8.012 5.9-12.712 13.096-10.6 23.89Zm13.717-20.434a15.973 15.973 0 0 1 3.55 12.184 2.603 2.603 0 0 1-.864 1.583 24.577 24.577 0 0 1-14.007 6.284C32.661 43.481 38.32 33.6 46.426 30.723Zm-41.543.48c-.383 3.262-.767 6.572-1.104 9.402-4.412-8.586-.864-23.84 7.82-30.461-.325.53-.677 1.043-1.056 1.535a24.127 24.127 0 0 0-5.325 16.98c-.02.857-.131 1.71-.333 2.542l-.002.002ZM18.7 57.2C9.344 52.453 4.355 43.434 6.13 34.176a28.39 28.39 0 0 0 8.396 11.801 27.434 27.434 0 0 0 16.98 6.284 8.28 8.28 0 0 1 3.263 1.344c2.014 1.056 3.98 2.255 5.852 3.31-3.643 3.788-14.44 4.076-21.922.286Zm17.268-4.646c4.366-1.872 8.779-3.742 13.673-5.853a60.62 60.62 0 0 1-3.982 6.427c-2.923 3.64-7.146 3.208-9.687-.582l-.004.008Zm10.266 2.254a27.472 27.472 0 0 0 6.38-11.081 52.32 52.32 0 0 1 4.75-8.635c2.832 6.038-3.164 17.071-11.123 19.709l-.007.007Zm13.196-16.74c-1.775-7.868.337-15.927-4.126-22.786a28.48 28.48 0 0 1 4.134 22.778l-.008.007Z"/>
    </g>
    <defs>
      <clipPath id="a">
        <path fill="#fff" d="M.91.72h152.634v60.56H.91z"/>
      </clipPath>
    </defs>
  </svg>