<svg xmlns="http://www.w3.org/2000/svg" fill="none" viewBox="0 0 132 46">
    <g fill="#000" opacity=".25">
      <path d="M37.081 4.5c.283-.743.534-.908 1.316-.908h2.757c.845 0 .743.124.743-.721 0-.44 0-.44-.439-.44h-9.67c-.846 0-.721-.092-.721.722 0 .314.095.407.407.407h3.633c.15-.01.299.012.44.063.313.095.438.251.37.558-.07.364-.176.72-.313 1.065-3.54 9.493-7.072 18.985-10.595 28.478a4.066 4.066 0 0 1-.186.372 2.285 2.285 0 0 1-.185-.439c-1.192-3.226-2.381-6.484-3.602-9.711-2.445-6.611-4.889-13.197-7.301-19.8-.186-.502-.125-.595.438-.595h3.603c.72 0 .626.063.626-.627 0-.47 0-.47-.47-.47H.332v1.002c.13.06.266.103.407.126H4.06c.69 0 .722.032.941.658a21752.956 21752.956 0 0 0 15.352 39.82c.44 1.097.125.877 1.348.91a.502.502 0 0 0 .533-.373c3.415-9.242 6.84-18.495 10.277-27.757 1.531-4.124 3.035-8.228 4.57-12.34Z"/>
      <path d="M131.103 19.64a4.41 4.41 0 0 0-3.346-4.104 8.435 8.435 0 0 0-8.271 2.193 10.6 10.6 0 0 0-2.507 3.697c-.031.094-.156.185-.219.282-.032-.031-.063-.031-.095-.063v-5.608c0-.533 0-.533-.502-.501-1.002.031-2.044.126-3.039.126-2.444.031-4.888 0-7.33 0-.814 0-.783 0-.783.784 0 .283.095.372.372.372h4.011c.282 0 .407.063.407.372v26.036c0 .371-.032.407-.407.407h-3.729c-.721 0-.721 0-.721.72 0 .44 0 .44.439.44h15.544c.846 0 .846 0 .846-.878 0-.25-.064-.371-.344-.346h-4.041c-.47 0-.47 0-.502-.501V29.22c0-1.131.062-2.26.186-3.385a11.422 11.422 0 0 1 2.507-6.392 9.778 9.778 0 0 1 2.318-2.23c.44-.304.971-.448 1.504-.407.502.031.743.282.721.782-.018.232-.05.462-.095.69a11.59 11.59 0 0 0-.282 3.29 3.084 3.084 0 0 0 2.286 2.756 5.49 5.49 0 0 0 2.475.032 2.928 2.928 0 0 0 2.538-2.506c.063-.314.094-.626.156-.94v-1.065a.243.243 0 0 1-.097-.207Z"/>
      <path d="M95.982 1.155c.439.156.626.814 1.284.69a4.607 4.607 0 0 0-.282-.407 12.637 12.637 0 0 0-.595-.91h-.743c-.314.408-.627.815-.94 1.254.65.158.869-.44 1.276-.627Z"/>
      <path d="M76.026 43.638h-4.011c-.47 0-.47 0-.47-.47V2.754c0-.44-.032-.502-.47-.47-.91.03-1.819.124-2.726.124-2.631.031-5.263 0-7.895 0-.877 0-.744-.095-.783.782 0 .283.095.372.372.372h3.885c.533 0 .533 0 .533.533v39.112c0 .095.032.22 0 .283-.063.093-.156.219-.25.219-1.411 0-2.852 0-4.26-.063a2.324 2.324 0 0 1-2.289-1.974 9.652 9.652 0 0 1-.22-2.13c-.03-4.386 0-8.773 0-13.197.038-1.452-.099-2.903-.406-4.323a7.946 7.946 0 0 0-2.569-4.481 9.007 9.007 0 0 0-4.01-1.818 23.868 23.868 0 0 0-8.303-.314c-1.5.19-2.953.647-4.292 1.348a5.959 5.959 0 0 0-3.446 4.669 3.238 3.238 0 0 0 1.91 3.477 4.594 4.594 0 0 0 3.415.063 2.565 2.565 0 0 0 1.755-1.974c.093-.464.125-.938.094-1.41-.031-.97-.124-1.943-.124-2.883a1.977 1.977 0 0 1 1.754-2.193 7.767 7.767 0 0 1 3.792.156 3.717 3.717 0 0 1 2.663 2.476c.25.72.408 1.47.47 2.23.096 1.16.064 2.35.064 3.51 0 1.22-.125 1.471-1.316 1.785-2.13.558-4.292 1.065-6.453 1.567a21.22 21.22 0 0 0-5.762 1.942 7.249 7.249 0 0 0-4.04 7.864 7.5 7.5 0 0 0 4.103 5.948 11.524 11.524 0 0 0 7.206 1.221 7.744 7.744 0 0 0 6.078-3.853.461.461 0 0 1 .186-.156c.031.063.095.156.124.22a3.68 3.68 0 0 0 2.194 2.726 7.85 7.85 0 0 0 3.477.69h19.605c.814 0 .814 0 .814-.815.008-.284-.117-.379-.4-.379ZM50.24 37.246a6.523 6.523 0 0 1-2.381 5.138 5.389 5.389 0 0 1-4.26 1.252 2.963 2.963 0 0 1-1.911-1.128 5.915 5.915 0 0 1-1.253-2.944 16.569 16.569 0 0 1 .156-6.799 4.906 4.906 0 0 1 3.666-3.697c1.316-.371 2.663-.658 3.979-1.002.557-.156 1.096-.343 1.66-.501.095-.032.219-.064.344-.095 0 .125.031.22.031.314-.031 3.165 0 6.299-.031 9.462Z"/>
      <path d="M104.284 25.279a13.418 13.418 0 0 0-5.921-7.896 16.638 16.638 0 0 0-12.282-1.567 13.271 13.271 0 0 0-8.303 6.234 15.548 15.548 0 0 0-2.005 6.203 17.568 17.568 0 0 0 .594 7.33 13.025 13.025 0 0 0 9.024 9.148c2.773.849 5.718.967 8.55.344a13.282 13.282 0 0 0 8.459-5.483 14.664 14.664 0 0 0 2.475-6.862 18.608 18.608 0 0 0-.591-7.451Zm-7.62 12.062a15.392 15.392 0 0 1-1.065 3.729 4.946 4.946 0 0 1-4.104 3.102 8.278 8.278 0 0 1-3.604-.314 4.44 4.44 0 0 1-2.416-1.91 11.562 11.562 0 0 1-1.38-3.76 28.351 28.351 0 0 1-.557-5.391c-.032-1.723-.063-3.477 0-5.204a24.623 24.623 0 0 1 1.16-7.238c.117-.332.252-.656.407-.972a4.728 4.728 0 0 1 3.697-2.82 7.519 7.519 0 0 1 4.072.251c.844.31 1.568.88 2.067 1.629a10.086 10.086 0 0 1 1.44 3.665 27.41 27.41 0 0 1 .627 5.044l.093 3.227a42.787 42.787 0 0 1-.43 6.962h-.007Z"/>
      <path d="M99.649 3.285h.063c.032.095.063.156.095.251.407 1.284.782 2.569 1.191 3.853.186.658.186.626.877.658a.325.325 0 0 0 .332-.16.316.316 0 0 0 .04-.123l1.316-4.23c.032-.095.063-.186.095-.312a.115.115 0 0 1 .095.032V7.92h.845V2.25h-1.221a.313.313 0 0 0-.344.25c-.371 1.318-.782 2.633-1.159 3.981-.032.125-.095.25-.156.439-.064-.156-.093-.251-.125-.344-.407-1.348-.814-2.695-1.253-4.04-.031-.096-.126-.252-.219-.252-.407-.031-.846 0-1.253 0v5.702h.783l-.002-4.702Z"/>
      <path d="M89.997 3.818c.032 0 .063 0 .063-.031.064.095.095.186.156.282.627 1.222 1.253 2.445 1.88 3.634.063.093.156.22.25.22.261.015.522.015.783 0V2.256h-.814v4.09a.528.528 0 0 1-.22-.315c-.626-1.221-1.222-2.416-1.849-3.634-.031-.094-.124-.219-.22-.219a7.645 7.645 0 0 0-.845 0v5.703h.814l.002-4.064Z"/>
      <path d="M114.466 8.047a1.893 1.893 0 0 0 1.974-1.16 4.234 4.234 0 0 0 .314-1.754 3.488 3.488 0 0 0-.314-1.787 1.938 1.938 0 0 0-1.974-1.223 1.845 1.845 0 0 0-1.723 1.285 4.668 4.668 0 0 0-.031 3.382 1.94 1.94 0 0 0 1.754 1.257Zm-.721-4.637a1.005 1.005 0 0 1 .909-.558.93.93 0 0 1 .877.533c.094.154.157.324.186.502a5.504 5.504 0 0 1 0 2.476c-.04.19-.114.37-.219.533a.997.997 0 0 1-.88.473.986.986 0 0 1-.843-.536 3.37 3.37 0 0 1-.314-1.754 2.798 2.798 0 0 1 .286-1.668l-.002-.001Z"/>
      <path d="M94.227 6.95a1.86 1.86 0 0 0 1.723 1.065 1.788 1.788 0 0 0 1.818-1.001c.212-.456.349-.942.407-1.44a3.933 3.933 0 0 0-.371-2.382 1.942 1.942 0 0 0-1.943-1.065 1.78 1.78 0 0 0-1.66 1.253c-.172.565-.308 1.14-.407 1.723a.115.115 0 0 1 .095.032 3.375 3.375 0 0 0 .338 1.815Zm.783-3.414a.952.952 0 0 1 .94-.658.992.992 0 0 1 .972.626c.092.235.166.476.22.722.063.314.063.626.095.94.031 0 .031 0 .063.032-.085.518-.2 1.03-.344 1.535a.98.98 0 0 1-.814.69.93.93 0 0 1-1.065-.558 5.272 5.272 0 0 1-.283-1.002 5.155 5.155 0 0 1 .216-2.327Z"/>
      <path d="M86.332 8.05a1.84 1.84 0 0 0 1.817-1.16 3.85 3.85 0 0 0 .314-1.787 3.814 3.814 0 0 0-.343-1.85 1.922 1.922 0 0 0-1.911-1.127 1.762 1.762 0 0 0-1.692 1.16 4.647 4.647 0 0 0-.031 3.601 1.909 1.909 0 0 0 1.846 1.162Zm-1.034-4.387a.961.961 0 0 1 .97-.785 1.013 1.013 0 0 1 1.065.744c.127.484.222.975.283 1.472-.095.502-.125 1.002-.251 1.44a1.002 1.002 0 0 1-1.033.814 1.022 1.022 0 0 1-1.034-.845 4.906 4.906 0 0 1 0-2.84Z"/>
      <path d="M79.628 7.265h-2.695V5.322H79v-.686H76.9V2.913h2.625v-.658a1.367 1.367 0 0 1-.157-.031h-3.375v5.702h3.634v-.661Z"/>
      <path d="M82.197 8.017a1.91 1.91 0 0 0 1.691-1.786c-.25-.063-.533-.124-.782-.186-.127.283-.186.558-.315.814a.998.998 0 0 1-1.691.093 4.405 4.405 0 0 1 0-3.665 1.002 1.002 0 0 1 1.723.126c.093.186.156.44.25.658.283-.094.534-.156.847-.25a1.95 1.95 0 0 0-1.285-1.63 1.986 1.986 0 0 0-2.663 1.379 4.867 4.867 0 0 0-.032 2.914 1.91 1.91 0 0 0 2.257 1.533Z"/>
      <path d="M110.455 8.015a1.915 1.915 0 0 0 1.66-1.786c-.251-.063-.533-.124-.783-.186-.085.268-.19.53-.314.783a.903.903 0 0 1-.94.533 1.087 1.087 0 0 1-.97-.909 6.056 6.056 0 0 1-.095-2.256c.036-.274.121-.539.251-.783a.946.946 0 0 1 .972-.533.904.904 0 0 1 .814.658c.063.156.095.344.156.532.312-.095.558-.156.846-.251a1.798 1.798 0 0 0-1.253-1.63 1.92 1.92 0 0 0-2.476 1.191 4.755 4.755 0 0 0-.031 3.29 1.859 1.859 0 0 0 2.163 1.347Z"/>
      <path d="M105.945 2.597V7.58h-.722v.371h2.476V7.58a2.048 2.048 0 0 0-.439 0c-.312.031-.343-.095-.343-.372v-4.26a1.418 1.418 0 0 1 .031-.344h.744c.063-.251.031-.372-.22-.344h-2.249c-.005.116.006.231.032.344l.69-.006Z"/>
    </g>
  </svg>